Coordinates
version=1
nRows=16
nColumns=42
inDegrees=yes

Units are S.I. units (second, meters, Newtons, ...)
If the header above contains a line with 'inDegrees', this indicates whether rotational values are in degrees (yes) or radians (no).

endheader
time	pelvis_tilt	pelvis_list	pelvis_rotation	pelvis_tx	pelvis_ty	pelvis_tz	hip_flexion_r	hip_adduction_r	hip_rotation_r	knee_angle_r	knee_adduction_r	knee_angle_r_beta	ankle_angle_r	subtalar_angle_r	mtp_angle_r	hip_flexion_l	hip_adduction_l	hip_rotation_l	knee_angle_l	knee_adduction_l	knee_angle_l_beta	ankle_angle_l	subtalar_angle_l	mtp_angle_l	lumbar_extension	lumbar_bending	lumbar_rotation	arm_flex_r	arm_add_r	arm_rot_r	elbow_flex_r	pro_sup_r	wrist_flex_r	wrist_dev_r	arm_flex_l	arm_add_l	arm_rot_l	elbow_flex_l	pro_sup_l	wrist_flex_l	wrist_dev_l
      0.00000000	     14.16371861	     -1.53790852	      2.93901246	     -1.13417844	      0.85308681	     -0.26939528	     10.44361423	      1.66005094	     -7.47535508	     16.66242538	      1.84681116	      0.29081418	     12.24955652	     -9.61302165	     -9.46989121	    -27.06645107	     -3.66345654	    -12.37262043	      1.78152069	      8.95100207	      0.03109340	     23.02336022	      7.69318753	     -9.46989121	    -29.62280228	      2.36451689	      1.10879614	    -11.22275651	     -5.32124673	    -12.05619290	     28.82281542	     90.00000001	      0.00000000	      0.00000000	     27.09877362	     -9.72147066	     -1.09780259	     46.77312165	     90.00000001	      0.00000000	      0.00000000
      0.01000000	     14.01919067	     -1.16299734	      3.14263657	     -1.12391217	      0.85108244	     -0.26952284	     10.59082432	      1.14135331	     -8.08469398	     14.13351719	      1.96986004	      0.24667641	     11.98363079	     -8.03530643	     -9.42977291	    -27.56734483	     -3.22855940	    -12.13380719	      1.95704581	      8.53491230	      0.03415689	     23.50285750	      7.91571673	     -9.42977291	    -29.44541989	      2.12048463	      0.82567530	    -11.78510190	     -5.19164314	    -12.08836367	     28.60537036	     90.00000001	      0.00000000	      0.00000000	     27.59676823	     -9.77048486	     -0.82218344	     47.76490875	     90.00000001	      0.00000000	      0.00000000
      0.02000000	     13.92973919	     -1.04046871	      3.39903228	     -1.11347023	      0.84916240	     -0.26929838	     10.67356456	      0.96929891	     -9.06605168	     11.89317406	      1.93841708	      0.20757505	     12.16033310	     -5.86671445	     -9.34802482	    -28.16281138	     -3.24291467	    -11.86349914	      2.14428624	      8.41097868	      0.03742485	     23.72330056	      8.01473414	     -9.34802482	    -29.31918736	      2.12793082	      0.65621088	    -12.26918533	     -5.04786084	    -12.30776236	     28.40661907	     90.00000001	      0.00000000	      0.00000000	     28.03097603	     -9.96088951	     -0.10106313	     48.85196240	     90.00000001	      0.00000000	      0.00000000
      0.03000000	     13.72995072	     -0.64515814	      3.59791580	     -1.10318780	      0.84726729	     -0.26930351	     10.92872193	      0.37130441	     -9.83191652	     10.18724977	      2.09784993	      0.17780105	     11.86894460	     -4.41933165	     -9.31479382	    -28.53419524	     -2.80256779	    -11.50811791	      2.48376973	      7.92799468	      0.04334996	     24.00904682	      8.12930966	     -9.31479382	    -29.11228757	      1.86912209	      0.38811558	    -12.68526663	     -4.91161705	    -12.45104424	     28.24777504	     90.00000001	      0.00000000	      0.00000000	     28.45308345	    -10.01414216	      0.21410726	     49.65414668	     90.00000001	      0.00000000	      0.00000000
      0.04000000	     13.36035185	     -0.43214163	      3.48379915	     -1.09278671	      0.84514430	     -0.26862838	     11.67114146	      0.07754963	    -10.56394586	      9.43356623	      2.09358542	      0.16464679	     11.81485952	     -4.07471664	     -9.29801779	    -28.82252011	     -2.55287261	    -11.40717942	      2.75725677	      7.77247811	      0.04812321	     24.04387092	      8.15877351	     -9.29801779	    -28.71040704	      1.64066760	      0.55758713	    -13.09105301	     -4.82885785	    -12.47371545	     28.10991762	     90.00000001	      0.00000000	      0.00000000	     28.86102950	     -9.86636383	      0.33718437	     50.17847656	     90.00000001	      0.00000000	      0.00000000
      0.05000000	     13.34596884	     -0.17049407	      4.12110291	     -1.08200310	      0.84376877	     -0.26882154	     11.74275606	     -0.51396493	    -12.85451739	      8.76243695	      2.17133287	      0.15293338	     12.63312524	      0.36108232	     -9.10441359	    -29.07207052	     -2.59331597	    -11.67786083	      3.87673972	      7.32847835	      0.06766187	     24.76934851	      9.69918437	     -9.10441359	    -28.65175563	      1.69986855	     -0.03453114	    -13.22271801	     -4.49696536	    -13.60845693	     27.73999098	     90.00000001	      0.00000000	      0.00000000	     28.95178553	    -10.34038684	      1.62382564	     51.28952548	     90.00000001	      0.00000000	      0.00000000
      0.06000000	     12.98053334	     -0.03808027	      4.13587435	     -1.07127513	      0.84204432	     -0.26817214	     12.28668114	     -0.74043465	    -13.17216975	      8.53187185	      2.17184359	      0.14890926	     12.53539445	      0.42642919	     -9.09335710	    -29.23512426	     -2.49824283	    -11.54333319	      4.43074251	      7.08258401	      0.07733105	     24.75635841	      9.72282025	     -9.09335710	    -28.21382141	      1.62430487	      0.01577006	    -13.50157564	     -4.43796048	    -13.60329146	     27.63231990	     90.00000001	      0.00000000	      0.00000000	     29.12995490	    -10.22937119	      1.67853524	     51.61409713	     90.00000001	      0.00000000	      0.00000000
      0.07000000	     12.86795718	      0.20200550	      4.55755033	     -1.06063593	      0.84101108	     -0.26811765	     12.32201712	     -1.22298456	    -13.94156384	      8.37582574	      2.28751203	      0.14618574	     12.17057077	      0.52875603	     -9.06569661	    -29.36530880	     -2.41291628	    -11.44136748	      5.50629480	      6.49851048	      0.09610297	     24.88604817	      9.97043865	     -9.06569661	    -28.10992289	      1.64600164	     -0.42086814	    -13.48439993	     -4.37242188	    -13.71431737	     27.33257125	     90.00000001	      0.00000000	      0.00000000	     29.11273131	    -10.38735311	      2.13471108	     52.36112942	     90.00000001	      0.00000000	      0.00000000
      0.08000000	     12.51120231	      0.23738201	      4.63771425	     -1.04944644	      0.83972174	     -0.26721808	     12.65437660	     -1.30432953	    -14.05787758	      8.59071663	      2.23275173	      0.14993629	     12.07345942	      0.45664241	     -9.05485708	    -29.43472482	     -2.50028150	    -11.24804609	      6.27271113	      6.25795038	      0.10947946	     24.82113597	     10.07055216	     -9.05485708	    -27.63320028	      1.67993049	     -0.37874473	    -13.65455969	     -4.29844314	    -13.74867184	     27.22705016	     90.00000001	      0.00000000	      0.00000000	     29.03320013	    -10.33392927	      2.25376373	     52.56778052	     90.00000001	      0.00000000	      0.00000000
      0.09000000	     12.49895088	      0.20794667	      4.98514975	     -1.03846000	      0.83916794	     -0.26635522	     12.75007988	     -1.39104702	    -15.22867182	      9.57726180	      2.08019747	      0.16715475	     11.71155549	     -0.50949218	     -9.02668256	    -29.49214656	     -2.87938403	    -11.65314563	      7.81906033	      5.89202197	      0.13646835	     24.72056541	     10.30036868	     -9.02668256	    -27.61886125	      1.89839154	     -0.55092119	    -13.48576801	     -4.18360197	    -13.97981575	     26.81415003	     90.00000001	      0.00000000	      0.00000000	     28.91706156	    -10.47423908	      2.71903966	     53.11575281	     90.00000001	      0.00000000	      0.00000000
      0.10000000	     12.38956867	      0.03587706	      5.17928888	     -1.02690283	      0.83868433	     -0.26520074	     12.84663927	     -1.25523139	    -16.14832847	     10.63545817	      1.88635211	      0.18562376	     11.30972321	     -1.47492849	     -8.99562720	    -29.51306419	     -3.41199543	    -12.16122466	      9.29307951	      5.72670796	      0.16219484	     24.62283124	     10.81802126	     -8.99562720	    -27.39572611	      2.20635176	     -0.54738174	    -13.35784296	     -4.11916547	    -14.30900962	     26.53087040	     90.00000001	      0.00000000	      0.00000000	     28.62261364	    -10.50371836	      2.98557726	     53.27916157	     90.00000001	      0.00000000	      0.00000000
      0.11000000	     12.52017311	     -0.48452493	      5.35952732	     -1.01491506	      0.83871395	     -0.26370607	     12.43167652	     -0.57385188	    -16.67580098	     11.36516391	      1.62800315	      0.19835953	     10.60611153	     -2.80639527	     -8.85797360	    -29.47937899	     -4.50159339	    -14.28577610	     11.56908040	      5.50452022	      0.20191854	     25.22782674	     13.76552685	     -8.85797360	    -27.36917205	      2.87364811	     -0.32018697	    -13.13505326	     -3.99330659	    -15.47378246	     26.29319418	     90.00000001	      0.00000000	      0.00000000	     28.27551971	    -10.40089190	      3.13667141	     53.26608608	     90.00000001	      0.00000000	      0.00000000
      0.12000000	     12.51222333	     -0.72243842	      5.38917215	     -1.00326343	      0.83900501	     -0.26220102	     12.27250604	     -0.28407153	    -17.06866599	     12.52218800	      1.47523322	      0.21855341	     10.29170984	     -3.63824233	     -8.83870030	    -29.51445131	     -4.95139545	    -14.15871315	     13.12221853	      5.13857799	      0.22902592	     24.44228807	     13.25329112	     -8.83870030	    -27.29837982	      3.19679495	     -0.11513219	    -12.88615438	     -4.03315337	    -15.40199602	     26.10541312	     90.00000001	      0.00000000	      0.00000000	     27.89978843	    -10.23237579	      3.04315611	     53.13185436	     90.00000001	      0.00000000	      0.00000000
      0.13000000	     12.52767138	     -1.21304085	      5.47659166	     -0.99111507	      0.83962776	     -0.26054447	     12.03422355	      0.29180674	    -17.86860310	     13.71618426	      1.26527082	      0.23939258	      9.55720898	     -5.08537986	     -8.80496328	    -29.48081277	     -5.79573646	    -14.21713921	     14.92072196	      4.93355808	      0.26041572	     23.37604137	     12.43122752	     -8.80496328	    -27.15311329	      3.79195593	      0.08954636	    -12.54375604	     -4.13434868	    -15.40414173	     25.86342697	     90.00000001	      0.00000000	      0.00000000	     27.33125234	    -10.06371756	      2.81856443	     52.83044922	     90.00000001	      0.00000000	      0.00000000
      0.14000000	     12.68054814	     -1.61102467	      5.42403297	     -0.97909845	      0.84079549	     -0.25864427	     11.50361536	      0.81950162	    -18.10036750	     14.69376574	      1.22071207	      0.25645459	      9.15401298	     -6.10573955	     -8.78830571	    -29.46672777	     -6.49439033	    -14.08653926	     16.97296831	      4.76723964	      0.29623418	     22.02281244	     11.45502512	     -8.78830571	    -27.22641127	      4.23678557	      0.41306783	    -12.08604777	     -4.22225727	    -15.39054991	     25.64822540	     90.00000001	      0.00000000	      0.00000000	     26.75749875	     -9.86737305	      2.60344238	     52.46484565	     90.00000001	      0.00000000	      0.00000000
      0.15000000	     12.82226135	     -2.39846204	      5.36653559	     -0.96685698	      0.84229361	     -0.25630397	     10.78383708	      1.95363641	    -17.95799205	     15.15230803	      1.11978427	      0.26445766	      8.01852797	     -8.08068979	     -8.73496146	    -29.41803142	     -7.67427818	    -13.47404596	     19.07504127	      4.94821761	      0.33292228	     20.11314199	      9.27860755	     -8.73496146	    -27.24208694	      5.04938526	      0.85426558	    -11.53968216	     -4.38371880	    -15.41895021	     25.44093678	     90.00000001	      0.00000000	      0.00000000	     26.05979514	     -9.61926940	      2.12269998	     51.94776943	     90.00000001	      0.00000000	      0.00000000
